<?xml version="1.0" encoding="UTF-8"?>
<svg width="24px" height="23px" viewBox="0 0 24 23" version="1.1" xmlns="http://www.w3.org/2000/svg" xmlns:xlink="http://www.w3.org/1999/xlink">
    <!-- Generator: Sketch 56.2 (81672) - https://sketch.com -->
    <title>Date</title>
    <desc>Created with Sketch.</desc>
    <g id="Date" stroke="none" stroke-width="1" fill="none" fill-rule="evenodd">
        <g id="Icon/Calendar" fill="#FFFFFF" fill-rule="nonzero">
            <path d="M15.0293556,2.88 C15.190338,2.88 15.36,2.04813934 15.36,1.92 C15.36,1.79186066 15.190338,0.96 15.0293556,0.96 L8.03012151,0.96 C7.86913913,0.96 7.68,1.79186066 7.68,1.92 C7.68,2.04813934 7.86913913,2.88 8.03012151,2.88 L15.0293556,2.88 Z" id="Path"></path>
            <path d="M6.72,3.56571429 L6.72,0.274285714 C6.72,0.12288 6.50496,0 6.24,0 C5.97504,0 5.76,0.12288 5.76,0.274285714 L5.76,3.56571429 C5.76,3.71712 5.97504,3.84 6.24,3.84 C6.50496,3.84 6.72,3.71712 6.72,3.56571429 Z" id="Path"></path>
            <path d="M17.28,3.56571429 L17.28,0.274285714 C17.28,0.12288 17.06496,0 16.8,0 C16.53504,0 16.32,0.12288 16.32,0.274285714 L16.32,3.56571429 C16.32,3.71712 16.53504,3.84 16.8,3.84 C17.06496,3.84 17.28,3.71712 17.28,3.56571429 Z" id="Path-Copy"></path>
            <path d="M23.0153846,0.96 C23.5396923,0.96 24,1.38360686 24,1.86514286 L24,21.1748571 C24,21.6563931 23.5396923,22.08 23.0153846,22.08 L0.861538462,22.08 C0.370461538,22.08 0,21.691392 0,21.1748571 L0,1.86514286 C0,1.348608 0.370461538,0.96 0.861538462,0.96 L4.61538462,0.96 C4.78523077,0.96 4.92804827,1.63825371 4.92804827,1.8048 C4.92804827,1.97134629 4.78523077,2.65547812 4.61538462,2.65547812 C4.50215385,2.65547812 3.60329102,2.65970625 1.91879615,2.6681625 C1.7366423,2.6681625 1.6726423,2.80183018 1.6726423,2.94061875 L1.6726423,6.0135375 L22.3077916,6.0135375 L22.3077916,2.94061875 C22.3077916,2.79096846 22.1207147,2.63890446 21.9385608,2.63890446 L19.3846154,2.65547812 C19.2147692,2.65547812 18.961356,1.97134629 18.961356,1.8048 C18.961356,1.63825371 19.2147692,0.96 19.3846154,0.96 L23.0153846,0.96 Z M22.0023304,20.4087315 C22.1611103,20.4087315 22.3220215,20.2895133 22.3220215,20.1721875 L22.3220215,7.70664375 L1.74075753,7.70664375 L1.74075753,20.1721875 C1.74075753,20.2809977 1.79617066,20.4087315 1.95388495,20.4087315 L22.0023304,20.4087315 Z" id="Shape"></path>
        </g>
    </g>
</svg>