<?xml version="1.0" encoding="UTF-8"?>
<svg width="50px" height="52px" viewBox="0 0 50 52" version="1.1" xmlns="http://www.w3.org/2000/svg" xmlns:xlink="http://www.w3.org/1999/xlink">
    <!-- Generator: Sketch 55.2 (78181) - https://sketchapp.com -->
    <title>Info - subtract letter</title>
    <desc>Created with Sketch.</desc>
    <g id="Info---subtract-letter" stroke="none" stroke-width="1" fill="none" fill-rule="evenodd">
        <path d="M25,51 C11.1928813,51 0,39.8071187 0,26 C0,12.1928813 11.1928813,1 25,1 C38.8071187,1 50,12.1928813 50,26 C50,39.8071187 38.8071187,51 25,51 Z M24.202,38 L27.356,20.216 L24.81,20.216 L21.656,38 L24.202,38 Z M28.876,13.338 C28.876,12.8059973 28.711335,12.3816683 28.382,12.065 C28.052665,11.7483318 27.6473357,11.59 27.166,11.59 C26.6846643,11.59 26.2603352,11.7673316 25.893,12.122 C25.5256648,12.4766684 25.342,12.9199973 25.342,13.452 C25.342,13.9840027 25.5129983,14.4019985 25.855,14.706 C26.1970017,15.0100015 26.6086643,15.162 27.09,15.162 C27.5966692,15.162 28.0209983,14.9846684 28.363,14.63 C28.7050017,14.2753316 28.876,13.8446692 28.876,13.338 Z" id="Combined-Shape" stroke="#FFFFFF" fill="#323232"></path>
    </g>
</svg>