<?xml version="1.0" encoding="UTF-8"?>
<svg width="25px" height="24px" viewBox="0 0 25 24" version="1.1" xmlns="http://www.w3.org/2000/svg" xmlns:xlink="http://www.w3.org/1999/xlink">
    <!-- Generator: Sketch 56 (81588) - https://sketch.com -->
    <title>Icon/Link</title>
    <desc>Created with Sketch.</desc>
    <g id="NewTab" stroke="none" stroke-width="1" fill="none" fill-rule="evenodd">
        <g id="Desktop-HD-Copy-3" transform="translate(-92.000000, -318.000000)" fill="#FFFFFF" fill-rule="nonzero">
            <g id="Group" transform="translate(92.000000, 318.000000)">
                <g id="Icon/Link">
                    <g id="Shape">
                        <path d="M11.7142857,18.4235294 L8.92857143,21.1764706 C7.92857143,22.1647059 5.71428571,21.7411765 4.21428571,20.2588235 C3.42857143,19.4823529 2.92857143,18.4941176 2.78571429,17.5764706 C2.64285714,16.7294118 2.85714286,16.0235294 3.28571429,15.6 L8.57142857,10.3764706 C9.07142857,9.95294118 9.78571429,9.74117647 10.5714286,9.88235294 C11.5,10.0235294 12.5,10.5176471 13.2857143,11.2941176 C13.6428571,11.6470588 14,12.0705882 14.2142857,12.4941176 C14.5,12.9882353 15.1428571,13.2 15.6428571,12.9176471 C16.1428571,12.6352941 16.3571429,12 16.0714286,11.5058824 C15.7142857,10.9411765 15.2857143,10.3764706 14.7857143,9.88235294 C13.6428571,8.75294118 12.2857143,8.04705882 10.8571429,7.83529412 C9.35714286,7.62352941 7.92857143,7.97647059 7,8.96470588 L1.71428571,14.1882353 C0.785714286,15.1058824 0.357142857,16.5176471 0.571428571,18 C0.785714286,19.4117647 1.5,20.7529412 2.64285714,21.8823529 C4,23.2235294 5.78571429,24 7.35714286,24 C8.5,24 9.57142857,23.6470588 10.3571429,22.8 L13.1428571,20.0470588 C13.5714286,19.6235294 13.5714286,18.9882353 13.1428571,18.5647059 C12.7857143,18 12.1428571,18 11.7142857,18.4235294 L11.7142857,18.4235294 Z M24.5714286,6.14117647 C24.4285714,4.65882353 23.7142857,3.24705882 22.5714286,2.11764706 C21.4285714,0.988235294 20,0.282352941 18.5,0.141176471 C16.9285714,-8.3127949e-15 15.5,0.423529412 14.5,1.48235294 L11.0714286,4.87058824 C10.6428571,5.29411765 10.6428571,5.92941176 11.0714286,6.35294118 C11.5,6.77647059 12.1428571,6.77647059 12.5714286,6.35294118 L16,2.96470588 C16.5714286,2.4 17.3571429,2.18823529 18.2857143,2.25882353 C19.2857143,2.32941176 20.2857143,2.82352941 21.0714286,3.6 C21.8571429,4.37647059 22.3571429,5.36470588 22.4285714,6.35294118 C22.5,7.27058824 22.2857143,8.04705882 21.7142857,8.61176471 L15.8571429,14.4 C15.2857143,14.9647059 14.5,15.1764706 13.5714286,15.1058824 C12.5714286,15.0352941 11.5714286,14.5411765 10.7857143,13.7647059 C10.3571429,13.3411765 10,12.8470588 9.78571429,12.3529412 C9.57142857,11.7882353 8.92857143,11.5764706 8.35714286,11.8588235 C7.78571429,12.0705882 7.57142857,12.7058824 7.85714286,13.2705882 C8.21428571,14.0470588 8.71428571,14.6823529 9.28571429,15.3176471 C10.4285714,16.4470588 11.8571429,17.1529412 13.3571429,17.2941176 L13.9285714,17.2941176 C15.2857143,17.2941176 16.4285714,16.8 17.3571429,15.9529412 L23.2142857,10.1647059 C24.2142857,9.10588235 24.7142857,7.69411765 24.5714286,6.14117647 L24.5714286,6.14117647 Z"></path>
                    </g>
                </g>
            </g>
        </g>
    </g>
</svg>