<?xml version="1.0" encoding="UTF-8"?>
<svg width="25px" height="24px" viewBox="0 0 25 24" version="1.1" xmlns="http://www.w3.org/2000/svg" xmlns:xlink="http://www.w3.org/1999/xlink">
    <!-- Generator: Sketch 56.2 (81672) - https://sketch.com -->
    <title>Museum</title>
    <desc>Created with Sketch.</desc>
    <g id="Museum" stroke="none" stroke-width="1" fill="none" fill-rule="evenodd">
        <g id="Group" transform="translate(1.000000, 1.000000)" stroke="#FFFFFF" stroke-width="2">
            <path d="M1,21.5 L6.5,21.5 L6.5,12.3696458 L6.83563616,12.0713026 C8.50654815,10.5860475 10.2330532,9.81871191 12,9.81871191 C13.7669468,9.81871191 15.4934518,10.5860475 17.1643638,12.0713026 L17.5,12.3696458 L17.5,21.5 L23,21.5 L23,7.64030114 C22.870423,7.21727105 22.7107209,6.99399389 22.5481183,6.91162758 C21.998064,6.6329978 18.6985409,5.63281952 17.94868,5.50542289 C15.9650948,5.16842423 13.9823937,5 12,5 C10.0176063,5 8.03490515,5.16842423 6.05131995,5.50542289 C4.19094856,5.82148829 2.20959731,6.33524828 1.62245174,6.80220792 C1.17051269,7.16163717 1,7.41407273 1,7.5 L1,21.5 Z" id="Rectangle"></path>
            <path d="M7.125,4.5331827 C7.125,3.04772123 7.33333333,2.03666033 7.75,1.5 C8.72301039,0.695009503 9.875,-1.33226763e-14 12,-1.33226763e-14 C14.125,-1.33226763e-14 14.7855104,0.288399145 16.25,1.5 C16.6666667,2.03666033 16.875,3.04772123 16.875,4.5331827" id="Line" stroke-linecap="square"></path>
            <path d="M6.25,22 L17.75,22" id="Line-2" stroke-linecap="square"></path>
        </g>
    </g>
</svg>