<?xml version="1.0" encoding="UTF-8"?>
<svg width="24px" height="24px" viewBox="0 0 24 24" version="1.1" xmlns="http://www.w3.org/2000/svg" xmlns:xlink="http://www.w3.org/1999/xlink">
    <!-- Generator: Sketch 56.3 (81716) - https://sketch.com -->
    <title>Museum</title>
    <desc>Created with Sketch.</desc>
    <g id="Museum" stroke="none" stroke-width="1" fill="none" fill-rule="evenodd">
        <g id="Group" transform="translate(0.000000, 1.000000)" stroke="#FFFFFF" stroke-width="2">
            <path d="M1,22 L6.5,22 L6.5,12.6610553 L6.82750914,12.3634667 C8.4990112,10.8446698 10.2280576,10.0591277 12,10.0591277 C13.7719424,10.0591277 15.5009888,10.8446698 17.1724909,12.3634667 L17.5,12.6610553 L17.5,22 L23,22 L23,7.8036819 C22.8682102,7.36119619 22.704594,7.12646426 22.5401813,7.04133034 C21.991283,6.75710731 18.6933114,5.73518363 17.9450658,5.60523646 C15.9626393,5.26095018 13.9811554,5.08888889 12,5.08888889 C10.0188446,5.08888889 8.03736073,5.26095018 6.05493421,5.60523646 C4.19626396,5.92803011 2.21707565,6.45263367 1.63081608,6.9292499 C1.17446476,7.30025355 1,7.56427964 1,7.66666667 L1,22 Z" id="Rectangle"></path>
            <path d="M7.125,4.6339201 C7.125,3.11544837 7.33333333,2.08191945 7.75,1.53333333 C8.72301039,0.710454159 9.875,-1.33226763e-14 12,-1.33226763e-14 C14.125,-1.33226763e-14 14.7855104,0.294808015 16.25,1.53333333 C16.6666667,2.08191945 16.875,3.11544837 16.875,4.6339201" id="Line" stroke-linecap="square"></path>
            <path d="M6.25,22.4888889 L17.75,22.4888889" id="Line-2" stroke-linecap="square"></path>
        </g>
    </g>
</svg>