<?xml version="1.0" encoding="UTF-8"?>
<svg width="25px" height="25px" viewBox="0 0 25 25" version="1.1" xmlns="http://www.w3.org/2000/svg" xmlns:xlink="http://www.w3.org/1999/xlink">
    <!-- Generator: Sketch 56.3 (81716) - https://sketch.com -->
    <title>Settings</title>
    <desc>Created with Sketch.</desc>
    <g id="Settings" stroke="none" stroke-width="1" fill="none" fill-rule="evenodd">
        <g id="Group" transform="translate(1.000000, 1.000000)" stroke="#FFFFFF" stroke-width="2">
            <circle id="Oval" cx="11.6153846" cy="11.6153846" r="4.61538462"></circle>
            <path d="M11.5,19.9119638 C13.177261,19.9119638 14.7765585,23.5367333 16.2350844,22.9319377 C17.747096,22.3049637 16.1285367,18.4074705 17.2680036,17.2680036 C18.4074705,16.1285367 22.3049637,17.747096 22.9319377,16.2350844 C23.5367333,14.7765585 19.9119638,13.177261 19.9119638,11.5 C19.9119638,9.82273897 23.5367333,8.22344151 22.9319377,6.76491557 C22.3049637,5.25290399 18.4074705,6.8714633 17.2680036,5.73199638 C16.1285367,4.59252946 17.747096,0.695036317 16.2350844,0.0680622682 C14.7765585,-0.536733311 13.177261,3.08803616 11.5,3.08803616 C9.82273897,3.08803616 8.22344151,-0.536733311 6.76491557,0.0680622682 C5.25290399,0.695036317 6.8714633,4.59252946 5.73199638,5.73199638 C4.59252946,6.8714633 0.695036317,5.25290399 0.0680622682,6.76491557 C-0.536733311,8.22344151 3.08803616,9.82273897 3.08803616,11.5 C3.08803616,13.177261 -0.536733311,14.7765585 0.0680622682,16.2350844 C0.695036317,17.747096 4.59252946,16.1285367 5.73199638,17.2680036 C6.8714633,18.4074705 5.25290399,22.3049637 6.76491557,22.9319377 C8.22344151,23.5367333 9.82273897,19.9119638 11.5,19.9119638 Z" id="Oval"></path>
        </g>
    </g>
</svg>