<?xml version="1.0" encoding="UTF-8"?>
<svg width="28px" height="27px" viewBox="0 0 28 27" version="1.1" xmlns="http://www.w3.org/2000/svg" xmlns:xlink="http://www.w3.org/1999/xlink">
    <!-- Generator: Sketch 56.2 (81672) - https://sketch.com -->
    <title>Settings</title>
    <desc>Created with Sketch.</desc>
    <g id="Settings" stroke="none" stroke-width="1" fill="none" fill-rule="evenodd">
        <g id="Group" transform="translate(2.000000, 1.000000)" stroke="#FFFFFF" stroke-width="2">
            <circle id="Oval" cx="12" cy="12" r="4.61538462"></circle>
            <path d="M12,20.7777014 C13.7501854,20.7777014 15.4190176,24.5600695 16.9409577,23.9289785 C18.5187089,23.2747447 16.8297774,19.2077953 18.0187864,18.0187864 C19.2077953,16.8297774 23.2747447,18.5187089 23.9289785,16.9409577 C24.5600695,15.4190176 20.7777014,13.7501854 20.7777014,12 C20.7777014,10.2498146 24.5600695,8.58098245 23.9289785,7.05904233 C23.2747447,5.48129112 19.2077953,7.17022257 18.0187864,5.98121361 C16.8297774,4.79220466 18.5187089,0.725255287 16.9409577,0.0710214973 C15.4190176,-0.560069542 13.7501854,3.2222986 12,3.2222986 C10.2498146,3.2222986 8.58098245,-0.560069542 7.05904233,0.0710214973 C5.48129112,0.725255287 7.17022257,4.79220466 5.98121361,5.98121361 C4.79220466,7.17022257 0.725255287,5.48129112 0.0710214973,7.05904233 C-0.560069542,8.58098245 3.2222986,10.2498146 3.2222986,12 C3.2222986,13.7501854 -0.560069542,15.4190176 0.0710214973,16.9409577 C0.725255287,18.5187089 4.79220466,16.8297774 5.98121361,18.0187864 C7.17022257,19.2077953 5.48129112,23.2747447 7.05904233,23.9289785 C8.58098245,24.5600695 10.2498146,20.7777014 12,20.7777014 Z" id="Oval"></path>
        </g>
    </g>
</svg>